<svg xmlns="http://www.w3.org/2000/svg" id="Layer_2" viewBox="0 0 45.5 45.5"><g id="Layer_1-2"><g><path d="M45.5,31.28c0,5.69,0,8.53-2.84,11.37s-5.69,2.84-11.38,2.84H14.22c-5.69,0-8.53,0-11.38-2.84-2.84-2.84-2.84-5.69-2.84-11.37V14.22C0,8.53,0,5.69,2.84,2.84S8.53,0,14.22,0H31.28c5.69,0,8.53,0,11.38,2.84,2.84,2.84,2.84,5.69,2.84,11.37V31.28Z"></path><g><path d="M.25,14.31V31.19c0,.55,0,1.07,0,1.57L16.5,.25h-2.19C8.69,.25,5.88,.25,3.06,3.06S.25,8.69,.25,14.31Z" style="fill:#003f87;"></path><path d="M.75,38.51L38.51,.75c-1.88-.5-4.16-.5-7.32-.5h-14.68L.25,32.75c.01,2.37,.08,4.2,.5,5.75Z" style="fill:#fcd856;"></path><path d="M2.29,41.57L45.25,22.47V14.31c0-5.62,0-8.44-2.81-11.25-1.23-1.23-2.46-1.92-3.93-2.31L.75,38.51c.3,1.12,.78,2.11,1.54,3.06Z" style="fill:#d62828;"></path><path d="M3.06,42.44c.24,.24,.47,.45,.71,.64l41.46-9.21c.01-.82,.02-1.71,.02-2.68v-8.71L2.29,41.57c.23,.29,.49,.58,.77,.87Z" style="fill:#fff;"></path><path d="M45.23,33.87L3.77,43.08c2.59,2.16,5.39,2.17,10.54,2.17H31.19c5.62,0,8.44,0,11.25-2.81,2.33-2.33,2.73-4.66,2.8-8.57Z" style="fill:#007a3d;"></path></g></g></g></svg>