<?xml version="1.0" encoding="UTF-8"?><svg id="Layer_2" xmlns="http://www.w3.org/2000/svg" viewBox="0 0 2.97 2.97"><g id="Layer_1-2"><g><path d="M2.97,.59v1.78c0,.08-.01,.15-.04,.22-.09,.22-.3,.38-.55,.38H.59c-.25,0-.47-.16-.55-.38C.02,2.53,0,2.45,0,2.38V.59s0-.07,0-.1c0-.04,.02-.08,.03-.12,.01-.04,.04-.08,.06-.11,0-.01,.01-.02,.02-.03,.01-.02,.03-.04,.05-.06,.03-.03,.06-.05,.09-.08,.09-.06,.21-.1,.33-.1h1.78c.25,0,.47,.16,.55,.38,.03,.07,.04,.14,.04,.22Z" style="fill:#032774;"/><g><polygon points="0 .99 0 1.32 .33 .99 0 .99" style="fill:#032774;"/><path d="M.62,0V.45L.27,.1c.09-.06,.21-.1,.33-.1h.02Z" style="fill:#032774;"/><path d="M.33,.5H0s.02-.08,.03-.12c.01-.04,.04-.08,.06-.11l.23,.23Z" style="fill:#032774;"/><polygon points="1.48 .5 1.48 .17 1.16 .5 1.48 .5" style="fill:#032774;"/><polygon points="1.32 0 .87 0 .87 .45 1.32 0" style="fill:#032774;"/><polygon points="1.48 1.32 1.48 .99 1.16 .99 1.48 1.32" style="fill:#032774;"/><polygon points=".17 1.48 .62 1.48 .62 1.03 .17 1.48" style="fill:#032774;"/><polygon points=".87 1.48 1.32 1.48 .87 1.03 .87 1.48" style="fill:#032774;"/><path d="M1.48,.16l-.33,.33h.33v.49h-.33l.33,.33v.06l-.38-.39h-.11l.49,.5h-.16l-.45-.45v.45h-.25v-.45l-.45,.45h-.05l.49-.5h-.11L0,1.49v-.17l.33-.33H0v-.4s0-.07,0-.1H.33L.1,.26s.01-.02,.02-.03L.39,.5h.11L.17,.18s.06-.05,.09-.08l.35,.35v-.45h.25V.45l.45-.45h.05l-.49,.5h.11l.49-.5V.16Z" style="fill:#fff;"/><path d="M.49,.5h-.11L.12,.23s.03-.04,.05-.06L.49,.5Z" style="fill:#df0333;"/><polygon points=".99 .99 1.48 1.48 1.48 1.48 1.48 1.38 1.1 .99 .99 .99" style="fill:#df0333;"/><polygon points=".88 .5 .99 .5 1.48 0 1.37 0 .88 .5" style="fill:#df0333;"/><polygon points=".61 .99 .49 .99 0 1.48 .11 1.48 .61 .99" style="fill:#df0333;"/><polygon points="1.48 .59 .82 .59 .82 0 .67 0 .67 .59 0 .59 0 .89 .67 .89 .67 1.48 .82 1.48 .82 .89 1.48 .89 1.48 .59" style="fill:#df0333;"/></g><polygon points=".74 2.43 .55 2.63 .58 2.35 .31 2.33 .55 2.18 .39 1.95 .65 2.05 .74 1.78 .83 2.05 1.09 1.95 .94 2.18 1.18 2.33 .9 2.35 .94 2.63 .74 2.43" style="fill:#fff;"/><g><polygon points="2.23 2.42 2.15 2.5 2.17 2.39 2.05 2.38 2.15 2.32 2.09 2.22 2.19 2.26 2.23 2.15 2.27 2.26 2.37 2.22 2.31 2.32 2.41 2.38 2.3 2.39 2.31 2.5 2.23 2.42" style="fill:#fff;"/><polygon points="1.85 1.41 1.77 1.49 1.78 1.38 1.67 1.37 1.77 1.31 1.7 1.21 1.81 1.25 1.85 1.14 1.88 1.25 1.99 1.21 1.93 1.31 2.03 1.37 1.91 1.38 1.93 1.49 1.85 1.41" style="fill:#fff;"/><polygon points="2.23 .72 2.15 .8 2.17 .69 2.05 .67 2.15 .62 2.09 .52 2.19 .56 2.23 .45 2.27 .56 2.37 .52 2.31 .62 2.41 .67 2.3 .69 2.31 .8 2.23 .72" style="fill:#fff;"/><polygon points="2.67 1.24 2.59 1.32 2.6 1.21 2.49 1.2 2.59 1.14 2.53 1.04 2.63 1.08 2.67 .97 2.71 1.08 2.81 1.04 2.75 1.14 2.85 1.2 2.73 1.21 2.75 1.32 2.67 1.24" style="fill:#fff;"/><polygon points="2.36 1.64 2.29 1.68 2.31 1.6 2.25 1.56 2.33 1.55 2.36 1.48 2.39 1.55 2.46 1.56 2.4 1.6 2.42 1.68 2.36 1.64" style="fill:#fff;"/></g></g></g></svg>