<?xml version="1.0" encoding="UTF-8"?><svg id="Layer_2" xmlns="http://www.w3.org/2000/svg" viewBox="0 0 2.97 2.97"><g id="Layer_1-2"><g><path d="M2.97,.59v1.78c0,.08-.02,.15-.04,.22-.09,.22-.3,.37-.55,.37H.59c-.25,0-.47-.15-.55-.37-.03-.07-.04-.14-.04-.22V.59c0-.08,.01-.15,.04-.22,.09-.22,.3-.37,.55-.37h1.78c.25,0,.47,.15,.55,.37,.03,.07,.04,.14,.04,.22Z" style="fill:#de2910;"/><g><path d="M1.23,1.59s-.08,0-.12-.02c-.05-.02-.1-.06-.14-.1h.01c.06,.05,.2,.18,.41,.07-.2,.04-.23-.14-.24-.2-.01-.06-.12-.2-.26-.17-.18,.04-.2-.13-.2-.13-.19,.49,.39,.85,.72,.5-.06,.03-.11,.05-.17,.05Zm-.32-.13v-.05h-.06l.05-.04v-.05l.04,.04,.05-.02-.02,.05,.03,.04h-.05l-.03,.04Z" style="fill:#fff;"/><path d="M1.46,1.56c.01,.06,0,.12,0,.18-.01,.04-.03,.07-.06,.11-.04,.04-.09,.08-.14,.11h0c.07-.05,.24-.15,.2-.38-.03,.2-.2,.18-.26,.17-.06,0-.22,.05-.24,.19-.02,.18-.19,.15-.19,.15,.41,.33,.93-.11,.7-.53Zm-.28,.43l-.03,.05v-.05h-.06l.05-.04v-.05l.04,.04,.05-.02-.02,.05,.03,.04h-.05Z" style="fill:#fff;"/><path d="M1.49,1.5c.06,0,.12,.03,.16,.06,.03,.02,.06,.05,.08,.09,.03,.05,.05,.11,.06,.17h-.01c0-.08-.06-.27-.29-.3,.18,.09,.11,.25,.08,.3-.03,.06-.02,.23,.11,.29,.16,.07,.1,.2,.09,.22,.44-.29,.18-.92-.29-.83Zm.3,.44l-.03,.04v-.05h-.06l.05-.04v-.05l.04,.04,.05-.02-.02,.05,.03,.04h-.05Z" style="fill:#fff;"/><path d="M1.45,1.45c.03-.06,.06-.1,.11-.14,.03-.02,.07-.04,.11-.05,.05-.01,.12-.02,.18,0v.02c-.08-.02-.28-.03-.38,.18,.14-.15,.27-.03,.31,.02,.05,.04,.21,.09,.31-.02,.11-.13,.22-.03,.24-.02-.14-.51-.82-.46-.88,.02Zm.49-.12l-.03,.05v-.05h-.06l.05-.04v-.05l.04,.04,.05-.02-.02,.05,.03,.04h-.05Z" style="fill:#fff;"/><path d="M1.65,.64c-.53-.02-.69,.64-.26,.84-.05-.04-.08-.09-.09-.15-.01-.04-.02-.08-.02-.12,0-.06,.02-.11,.05-.17h.01c-.04,.08-.11,.26,.05,.42-.1-.18,.06-.26,.11-.29,.06-.03,.15-.17,.08-.3-.09-.16,.06-.23,.06-.23Zm-.24,.37l-.03,.04v-.05h-.06l.05-.04v-.05l.04,.04,.05-.02-.02,.05,.03,.04h-.05Z" style="fill:#fff;"/></g></g></g></svg>