<?xml version="1.0" encoding="UTF-8"?><svg id="Layer_2" xmlns="http://www.w3.org/2000/svg" viewBox="0 0 2.97 2.97"><g id="Layer_1-2"><g><path d="M.99,0V.91L.03,.42c.07-.24,.3-.42,.57-.42h.4Z" style="fill:#04247b;"/><path d="M2.94,.42l-.97,.48V0h.4c.27,0,.49,.18,.57,.42Z" style="fill:#04247b;"/><path d="M.99,2.06v.91h-.4c-.27,0-.49-.18-.57-.42l.97-.48Z" style="fill:#04247b;"/><path d="M2.94,2.55c-.07,.24-.3,.42-.57,.42h-.4v-.91l.97,.48Z" style="fill:#04247b;"/><path d="M2.97,.74v1.27l-.06-.03h-.44l.5,.25v.15c0,.06,0,.12-.03,.17l-.97-.48v.91H.99v-.91L.03,2.55s-.02-.07-.02-.1l.93-.47H.49l-.49,.25V.96l.05,.03H.5l-.5-.25v-.15c0-.06,0-.12,.03-.17l.97,.48V0h.99V.91l.97-.48s.02,.07,.02,.1l-.94,.47h.44l.5-.25Z" style="fill:#fff;"/><polygon points=".5 .99 .05 .99 0 .96 0 .74 .5 .99" style="fill:#ce152a;"/><polygon points="2.97 2.01 2.97 2.23 2.47 1.98 2.91 1.98 2.97 2.01" style="fill:#ce152a;"/><path d="M2.97,.59v.15l-.5,.25h-.44l.94-.47s0,.05,0,.07Z" style="fill:#ce152a;"/><path d="M.94,1.98L0,2.45s0-.05,0-.07v-.15l.49-.25h.44Z" style="fill:#ce152a;"/><polygon points="2.97 1.19 2.97 1.78 1.78 1.78 1.78 2.97 1.19 2.97 1.19 1.78 0 1.78 0 1.19 1.19 1.19 1.19 0 1.78 0 1.78 1.19 2.97 1.19" style="fill:#ce152a;"/></g></g></svg>