<svg xmlns="http://www.w3.org/2000/svg" id="icons" viewBox="0 0 85 85"><defs><style>      .cls-1 {        stroke-width: 5.97px;      }      .cls-1, .cls-2 {        stroke: #f8f8f8;      }      .cls-1, .cls-2, .cls-3 {        fill: none;        stroke-linecap: round;        stroke-linejoin: round;      }      .cls-2 {        stroke-width: 6.43px;      }      .cls-3 {        stroke: #000;        stroke-width: 2px;      }    </style></defs><circle class="cls-3" cx="42.5" cy="43.6" r="23.12" transform="translate(-9.76 74.84) rotate(-76.6)"></circle><line class="cls-2" x1="18.52" y1="20.48" x2="67.57" y2="20.48"></line><line class="cls-1" x1="18.52" y1="66.72" x2="67.57" y2="66.72"></line><g><path class="cls-3" d="m38.42,42.67h8.41c2.99,0,5.42,2.43,5.42,5.42s-2.43,5.42-5.42,5.42h-14.08"></path><path class="cls-3" d="m32.75,34.01h14.08c2.39,0,4.33,1.94,4.33,4.33s-1.94,4.33-4.33,4.33h-8.41"></path><line class="cls-3" x1="38.42" y1="28.34" x2="38.42" y2="59.18"></line><line class="cls-3" x1="44.09" y1="53.51" x2="44.09" y2="59.18"></line><line class="cls-3" x1="44.09" y1="28.34" x2="44.09" y2="34.01"></line></g><g><line class="cls-3" x1="81.69" y1="66.72" x2="3.31" y2="66.72"></line><path class="cls-3" d="m8.45,20.48h68.1c2.84,0,5.14,2.3,5.14,5.14v45.64c0,2.84-2.3,5.14-5.14,5.14H8.45c-2.84,0-5.14-2.3-5.14-5.14V25.62c0-2.84,2.3-5.14,5.14-5.14Z"></path><line class="cls-3" x1="38.32" y1="71.56" x2="46.68" y2="71.56"></line></g></svg>