<svg xmlns="http://www.w3.org/2000/svg" id="icons" viewBox="0 0 85 85"><defs><style>      .cls-1 {        fill: #1e1e1e;        stroke-width: 0px;      }    </style></defs><path class="cls-1" d="m22.79,37.41c5.79,0,10.5-4.71,10.5-10.5,0-5.43-8.63-15.47-9.61-16.6-.22-.26-.55-.4-.89-.4s-.66.15-.89.4c-.98,1.13-9.61,11.16-9.61,16.6,0,5.79,4.71,10.5,10.5,10.5Zm0-24.5c2.89,3.49,8.14,10.54,8.14,14,0,4.49-3.65,8.15-8.14,8.15s-8.15-3.65-8.15-8.15c0-3.46,5.25-10.51,8.15-14Z"></path><path class="cls-1" d="m23.09,33.32s.09,0,.14,0c.59,0,1.1-.44,1.17-1.04.08-.65-.38-1.23-1.03-1.31-.19-.02-4.64-.61-4.46-4.35.03-.65-.47-1.2-1.12-1.23-.63-.03-1.2.47-1.23,1.12-.22,4.75,4.18,6.52,6.54,6.79Z"></path><path class="cls-1" d="m64.53,47.59c-.34,0-.66.15-.89.4-.98,1.13-9.61,11.16-9.61,16.6,0,5.79,4.71,10.5,10.5,10.5s10.5-4.71,10.5-10.5c0-5.43-8.63-15.47-9.61-16.6-.22-.26-.55-.4-.89-.4Zm0,25.14c-4.49,0-8.15-3.65-8.15-8.15,0-3.46,5.25-10.51,8.15-14,2.89,3.49,8.14,10.54,8.14,14,0,4.49-3.65,8.15-8.14,8.15Z"></path><path class="cls-1" d="m60.64,64.32c.03-.65-.47-1.2-1.12-1.23-.64-.04-1.2.47-1.23,1.12-.22,4.75,4.18,6.52,6.54,6.79.05,0,.09,0,.14,0,.59,0,1.1-.44,1.17-1.04.08-.65-.38-1.23-1.03-1.31-.19-.02-4.64-.61-4.46-4.35Z"></path><path class="cls-1" d="m80.13,40.73H4.96c-.65,0-1.18.53-1.18,1.18s.53,1.18,1.18,1.18h75.17c.65,0,1.18-.53,1.18-1.18s-.53-1.18-1.18-1.18Z"></path><path class="cls-1" d="m42.62,38.23c.65,0,1.18-.53,1.18-1.18v-11.78h5.27v11.78c0,.65.53,1.18,1.18,1.18s1.18-.53,1.18-1.18v-12.95c0-.65-.53-1.18-1.18-1.18h-7.62c-.65,0-1.18.53-1.18,1.18v12.95c0,.65.53,1.18,1.18,1.18Z"></path><path class="cls-1" d="m70.17,38.23c.65,0,1.18-.53,1.18-1.18V12.62h5.27v24.43c0,.65.53,1.18,1.18,1.18s1.18-.53,1.18-1.18V11.44c0-.65-.53-1.18-1.18-1.18h-7.62c-.65,0-1.18.53-1.18,1.18v25.61c0,.65.53,1.18,1.18,1.18Z"></path><path class="cls-1" d="m56.4,38.23c.65,0,1.18-.53,1.18-1.18v-17.07h5.27v17.07c0,.65.53,1.18,1.18,1.18s1.18-.53,1.18-1.18v-18.25c0-.65-.53-1.18-1.18-1.18h-7.62c-.65,0-1.18.53-1.18,1.18v18.25c0,.65.53,1.18,1.18,1.18Z"></path><path class="cls-1" d="m14.91,45.59c-.65,0-1.18.53-1.18,1.18v11.78h-5.27v-11.78c0-.65-.53-1.18-1.18-1.18s-1.18.53-1.18,1.18v12.95c0,.65.53,1.18,1.18,1.18h7.62c.65,0,1.18-.53,1.18-1.18v-12.95c0-.65-.53-1.18-1.18-1.18Z"></path><path class="cls-1" d="m42.47,45.59c-.65,0-1.18.53-1.18,1.18v24.43h-5.27v-24.43c0-.65-.53-1.18-1.18-1.18s-1.18.53-1.18,1.18v25.61c0,.65.53,1.18,1.18,1.18h7.62c.65,0,1.18-.53,1.18-1.18v-25.61c0-.65-.53-1.18-1.18-1.18Z"></path><path class="cls-1" d="m28.69,45.59c-.65,0-1.18.53-1.18,1.18v17.07h-5.27v-17.07c0-.65-.53-1.18-1.18-1.18s-1.18.53-1.18,1.18v18.25c0,.65.53,1.18,1.18,1.18h7.62c.65,0,1.18-.53,1.18-1.18v-18.25c0-.65-.53-1.18-1.18-1.18Z"></path></svg>