<svg xmlns="http://www.w3.org/2000/svg" id="icons" viewBox="0 0 85 85"><defs><style>      .cls-1 {        fill: none;        stroke: #2e2d2c;        stroke-width: 2px;      }      .cls-1, .cls-2 {        stroke-linecap: round;        stroke-linejoin: round;      }      .cls-2 {        fill: #f8f8f8;        stroke: #f8f8f8;        stroke-width: 6.43px;      }    </style></defs><g><circle class="cls-1" cx="42.9" cy="26.46" r="21.05" transform="translate(7.35 62.19) rotate(-76.82)"></circle><g><g><line class="cls-1" x1="35.28" y1="13.92" x2="42.9" y2="25.61"></line><line class="cls-1" x1="50.51" y1="13.92" x2="42.9" y2="25.61"></line></g><line class="cls-1" x1="42.9" y1="25.61" x2="42.9" y2="37.04"></line><line class="cls-1" x1="36.06" y1="25.12" x2="49.74" y2="25.12"></line><line class="cls-1" x1="36.06" y1="30.44" x2="49.74" y2="30.44"></line></g></g><circle class="cls-2" cx="27.89" cy="56.47" r="21.05" transform="translate(-33.5 70.53) rotate(-76.61)"></circle><circle class="cls-1" cx="27.89" cy="56.47" r="21.05" transform="translate(-33.5 70.53) rotate(-76.61)"></circle><g><path class="cls-1" d="m29.58,68.12c-1.61,0-3.14-.33-4.54-.92-1.39-.59-2.65-1.44-3.7-2.5-1.05-1.05-1.91-2.31-2.5-3.7s-.92-2.93-.92-4.54.33-3.14.92-4.54,1.44-2.65,2.5-3.7c1.05-1.05,2.31-1.91,3.7-2.5,1.39-.59,2.93-.92,4.54-.92"></path><line class="cls-1" x1="14.12" y1="53.81" x2="29.38" y2="53.81"></line><line class="cls-1" x1="14.12" y1="59.13" x2="29.38" y2="59.13"></line></g><circle class="cls-2" cx="57.9" cy="56.47" r="21.05" transform="translate(-10.44 99.72) rotate(-76.61)"></circle><circle class="cls-1" cx="57.9" cy="56.47" r="21.05" transform="translate(-10.44 99.72) rotate(-76.61)"></circle><g><path class="cls-1" d="m64.6,50.63c-2.2-5.85-12.1-5.16-12.18.94-.03,2.73,3.16,3.98,5.84,4.41,9.74,1.54,7.05,10.7,0,10.35-5.35-.26-6.89-3.88-7.06-4.75"></path><line class="cls-1" x1="58.38" y1="41.93" x2="58.38" y2="46.6"></line><line class="cls-1" x1="58.38" y1="66.34" x2="58.38" y2="71.01"></line></g></svg>