<svg xmlns="http://www.w3.org/2000/svg" id="icons" viewBox="0 0 85 85"><defs><style>      .cls-1 {        fill: #fff;        stroke: #fff;      }      .cls-1, .cls-2, .cls-3 {        stroke-linecap: round;      }      .cls-1, .cls-2, .cls-3, .cls-4 {        stroke-linejoin: round;      }      .cls-1, .cls-3 {        stroke-width: 1.6px;      }      .cls-2, .cls-4 {        fill: none;        stroke: #000;        stroke-width: 2px;      }      .cls-3 {        stroke: #f8f8f8;      }      .cls-3, .cls-5 {        fill: #f8f8f8;      }      .cls-5 {        stroke-width: 0px;      }    </style></defs><rect class="cls-5" x="20.99" y="39.74" width="6.64" height="25.77"></rect><rect class="cls-5" x="40.58" y="39.74" width="6.64" height="25.77"></rect><rect class="cls-5" x="60.17" y="39.74" width="6.64" height="25.77"></rect><g><line class="cls-2" x1="15.61" y1="69.53" x2="72.19" y2="69.53"></line><line class="cls-2" x1="12.25" y1="74.96" x2="75.55" y2="74.96"></line><g><line class="cls-4" x1="20.99" y1="39.74" x2="20.99" y2="65.51"></line><line class="cls-4" x1="27.63" y1="39.74" x2="27.63" y2="65.51"></line></g><g><line class="cls-4" x1="40.58" y1="39.74" x2="40.58" y2="65.51"></line><line class="cls-4" x1="47.22" y1="39.74" x2="47.22" y2="65.51"></line></g><g><line class="cls-4" x1="60.17" y1="39.74" x2="60.17" y2="65.51"></line><line class="cls-4" x1="66.81" y1="39.74" x2="66.81" y2="65.51"></line></g><polygon class="cls-3" points="11.14 29.98 43.9 8.2 76.1 29.98 11.14 29.98"></polygon><polyline class="cls-2" points="11.14 29.98 43.9 8.2 76.1 29.98"></polyline><line class="cls-2" x1="18.34" y1="35.41" x2="30.29" y2="35.41"></line><line class="cls-2" x1="37.93" y1="35.41" x2="49.88" y2="35.41"></line><line class="cls-2" x1="57.51" y1="35.41" x2="69.47" y2="35.41"></line></g><line class="cls-2" x1="69.47" y1="29.98" x2="18.38" y2="29.98"></line><path class="cls-1" d="m47.83,20.61c0,2.17-1.76,3.93-3.93,3.93s-3.93-1.76-3.93-3.93,1.76-3.93,3.93-3.93,3.93,1.76,3.93,3.93Z"></path><path class="cls-2" d="m47.83,20.61c0,2.17-1.76,3.93-3.93,3.93s-3.93-1.76-3.93-3.93,1.76-3.93,3.93-3.93"></path></svg>