<svg xmlns="http://www.w3.org/2000/svg" id="icons" viewBox="0 0 85 85"><defs><style>      .cls-1 {        fill: none;        stroke: #000;        stroke-linecap: round;        stroke-linejoin: round;        stroke-width: 2px;      }    </style></defs><g><g><polygon class="cls-1" points="30.54 78.69 6.62 78.69 12.42 63.44 24.74 63.44 30.54 78.69"></polygon><polygon class="cls-1" points="54.46 78.69 30.54 78.69 36.34 63.44 48.66 63.44 54.46 78.69"></polygon><polygon class="cls-1" points="78.38 78.69 54.46 78.69 60.26 63.44 72.58 63.44 78.38 78.69"></polygon></g><g><polygon class="cls-1" points="42.5 63.44 18.58 63.44 24.38 48.18 36.7 48.18 42.5 63.44"></polygon><polygon class="cls-1" points="66.42 63.44 42.5 63.44 48.3 48.18 60.62 48.18 66.42 63.44"></polygon></g><polygon class="cls-1" points="54.46 48.18 30.54 48.18 36.34 32.93 48.66 32.93 54.46 48.18"></polygon></g><g><line class="cls-1" x1="79.18" y1="31.05" x2="71.35" y2="35.57"></line><line class="cls-1" x1="63.68" y1="15.54" x2="59.16" y2="23.38"></line><line class="cls-1" x1="42.5" y1="18.89" x2="42.5" y2="9.84"></line><line class="cls-1" x1="21.32" y1="15.54" x2="25.84" y2="23.38"></line><line class="cls-1" x1="5.82" y1="31.05" x2="13.65" y2="35.57"></line></g></svg>