<svg xmlns="http://www.w3.org/2000/svg" id="icons" viewBox="0 0 85 85"><defs><style>      .cls-1 {        fill: none;        stroke: #000;        stroke-linecap: round;        stroke-linejoin: round;        stroke-width: 2px;      }    </style></defs><polyline class="cls-1" points="23.12 70.96 20.19 76.4 25.08 79.22"></polyline><polyline class="cls-1" points="37.15 70.77 40 75.71 35.11 78.54"></polyline><polyline class="cls-1" points="15.56 58.28 8.35 58.28 8.35 10.15 76.73 10.15 76.73 58.28 44.38 58.28"></polyline><g><g><line class="cls-1" x1="21.5" y1="20.3" x2="38.39" y2="20.3"></line><line class="cls-1" x1="21.5" y1="28.31" x2="38.39" y2="28.31"></line><line class="cls-1" x1="21.5" y1="36.32" x2="38.39" y2="36.32"></line></g><g><path class="cls-1" d="m65.22,28.72c-2.07-5.51-11.39-4.86-11.46.88-.03,2.57,2.98,3.75,5.5,4.15,9.17,1.45,6.64,10.07,0,9.75-5.04-.25-6.49-3.65-6.65-4.47"></path><line class="cls-1" x1="59.36" y1="20.3" x2="59.36" y2="24.92"></line><line class="cls-1" x1="59.36" y1="43.51" x2="59.36" y2="48.13"></line></g></g><g><path class="cls-1" d="m26.54,48.22l.24-.54c1.22-2.77,5.16-2.77,6.38,0l.24.54c.61,1.39,2.06,2.22,3.57,2.06l.58-.06c3.01-.33,4.98,3.08,3.19,5.53l-.35.47c-.9,1.23-.9,2.89,0,4.12l.35.47c1.79,2.45-.18,5.86-3.19,5.53l-.58-.06c-1.51-.16-2.96.67-3.57,2.06l-.24.54c-1.22,2.77-5.16,2.77-6.38,0l-.24-.54c-.61-1.39-2.06-2.22-3.57-2.06l-.58.06c-3.01.33-4.98-3.08-3.19-5.53l.35-.47c.9-1.23.9-2.89,0-4.12l-.35-.47c-1.79-2.45.18-5.86,3.19-5.53l.58.06c1.51.16,2.96-.67,3.57-2.06Z"></path><path class="cls-1" d="m34.43,58.28c0,2.46-2,4.46-4.46,4.46s-4.46-2-4.46-4.46,2-4.46,4.46-4.46"></path></g></svg>