<svg xmlns="http://www.w3.org/2000/svg" id="icons" viewBox="0 0 85 85"><defs><style>      .cls-1 {        fill: none;        stroke: #000;        stroke-linecap: round;        stroke-linejoin: round;        stroke-width: 2px;      }    </style></defs><g id="soft_commodity_agricultural_grain_cereals_cotton_coffee_cocoa" data-name="soft commodity agricultural grain cereals cotton coffee cocoa"><g><path class="cls-1" d="m69.76,50.52h-7.11c-3.36,2.36-9.48,11.85-9.48,17.78s3.56,9.48,13.04,9.48,13.04-3.56,13.04-9.48-6.12-15.42-9.48-17.78Z"></path><polyline class="cls-1" points="62.65 50.52 60.28 44.6 66.2 45.78 70.94 45.78 69.76 50.52 73.31 50.52"></polyline></g><g><path class="cls-1" d="m35.39,58.82c5.89,0,10.67-4.78,10.67-10.67,0-5.51-4.74-10.67-9.54-10.61-.56-5.36-5.1-9.54-10.61-9.54s-10.04,4.18-10.61,9.54c-5.99-.06-9.54,5.1-9.54,10.61,0,5.89,4.78,10.67,10.67,10.67"></path><path class="cls-1" d="m25.91,48.15c3.56,2.37,3.56,7.11,3.56,7.11,2.37-3.56,5.93-2.37,5.93-2.37v2.37c0,5.24-4.25,8.3-9.48,8.3s-9.48-3.06-9.48-8.3v-2.37s3.56-1.19,5.93,2.37c0,0,0-4.74,3.56-7.11"></path><line class="cls-1" x1="25.91" y1="63.56" x2="25.91" y2="68.3"></line></g><g><path class="cls-1" d="m48.43,12.05c-.07,3.11,2.28,4.1,2.28,4.1,0,0,2.39-1.08,2.45-4.19s-2.28-4.1-2.28-4.1c0,0-2.39,1.08-2.45,4.19Z"></path><path class="cls-1" d="m50.8,58.82v-28.44s-.35-2.44,2.3-4.05c2.65-1.62,4.79.12,4.79.12,0,0,.27,3.5-2.38,5.12"></path><path class="cls-1" d="m50.8,30.37v-5.93s-.35-2.44,2.3-4.05c2.65-1.62,4.79.12,4.79.12,0,0,.27,3.5-2.38,5.12"></path><path class="cls-1" d="m50.8,24.45v-5.93s-.35-2.44,2.3-4.05c2.65-1.62,4.79.12,4.79.12,0,0,.27,3.5-2.38,5.12"></path><path class="cls-1" d="m50.78,30.37s.35-2.44-2.3-4.05c-2.65-1.62-4.79.12-4.79.12,0,0-.27,3.5,2.38,5.12"></path><path class="cls-1" d="m50.78,33.93s.35-.07-2.3-1.68c-2.65-1.62-4.79.12-4.79.12,0,0,.49,3.24,2.36,5.12,2.37,2.37,4.74,2.37,4.74,2.37"></path><path class="cls-1" d="m50.82,33.93s-.35-.07,2.3-1.68c2.65-1.62,4.79.12,4.79.12,0,0-.49,3.24-2.36,5.12-2.37,2.37-4.74,2.37-4.74,2.37"></path><path class="cls-1" d="m50.78,24.45s.35-2.44-2.3-4.05c-2.65-1.62-4.79.12-4.79.12,0,0-.27,3.5,2.38,5.12"></path><path class="cls-1" d="m50.78,18.52s.35-2.44-2.3-4.05c-2.65-1.62-4.79.12-4.79.12,0,0-.27,3.5,2.38,5.12"></path><line class="cls-1" x1="43.7" y1="10.23" x2="43.71" y2="14.97"></line><line class="cls-1" x1="50.8" y1="4.3" x2="50.89" y2="7.86"></line><line class="cls-1" x1="57.9" y1="10.23" x2="57.91" y2="14.97"></line></g><g><path class="cls-1" d="m35.97,13.2c3.2,3.2,3.94,7.64,1.65,9.92-2.28,2.28-6.72,1.54-9.92-1.65-3.2-3.2-3.94-7.64-1.65-9.92,2.28-2.28,6.72-1.54,9.92,1.65Z"></path><path class="cls-1" d="m37.62,23.12c0-1.65-2.48-4.13-2.48-4.13,0,0-1.65-1.65-4.13-2.48-2.48-.83-3.31-1.65-3.31-1.65,0,0-1.65-1.65-1.65-3.31"></path></g></g></svg>